<svg xmlns="http://www.w3.org/2000/svg" width="375" viewBox="0 0 375 375" height="375" version="1.0"><defs><clipPath id="a"><path d="M 2.640625 77 L 372.390625 77 L 372.390625 303 L 2.640625 303 Z M 2.640625 77"/></clipPath></defs><g clip-path="url(#a)"><path fill="#FFF" d="M 360.734375 145.191406 C 368.238281 137.675781 372.390625 127.675781 372.390625 117.035156 C 372.390625 106.390625 368.238281 96.421875 360.734375 88.902344 C 345.234375 73.378906 320.007812 73.378906 304.484375 88.878906 L 192.1875 201.117188 C 189.605469 203.699219 185.429688 203.699219 182.847656 201.117188 L 70.550781 88.878906 C 55.050781 73.378906 29.800781 73.378906 14.300781 88.902344 C 6.769531 96.421875 2.640625 106.390625 2.640625 117.035156 C 2.640625 127.675781 6.769531 137.675781 14.300781 145.191406 L 159.378906 290.367188 C 166.910156 297.910156 176.890625 302.070312 187.515625 302.070312 C 198.144531 302.070312 208.125 297.910156 215.628906 290.367188 L 360.734375 145.191406"/></g></svg>