<svg xmlns="http://www.w3.org/2000/svg" width="375" viewBox="0 0 375 375" height="375" version="1.0"><defs><clipPath id="a"><path d="M 74 3.617188 L 297 3.617188 L 297 371.117188 L 74 371.117188 Z M 74 3.617188"/></clipPath></defs><g clip-path="url(#a)"><path fill="#0D4067" d="M 229.71875 359.53125 C 237.160156 366.992188 247.0625 371.117188 257.601562 371.117188 C 268.140625 371.117188 278.015625 366.992188 285.457031 359.53125 C 300.832031 344.125 300.832031 319.054688 285.484375 303.621094 L 174.332031 192.007812 C 171.773438 189.445312 171.773438 185.292969 174.332031 182.726562 L 285.484375 71.113281 C 300.832031 55.707031 300.832031 30.613281 285.457031 15.207031 C 278.015625 7.71875 268.140625 3.617188 257.601562 3.617188 C 247.0625 3.617188 237.160156 7.71875 229.71875 15.207031 L 85.949219 159.402344 C 78.480469 166.886719 74.359375 176.808594 74.359375 187.367188 C 74.359375 197.929688 78.480469 207.851562 85.949219 215.308594 L 229.71875 359.53125"/></g></svg>