<svg xmlns="http://www.w3.org/2000/svg" width="375" viewBox="0 0 375 375" height="375" version="1.0"><defs><clipPath id="a"><path d="M 78 3.875 L 301 3.875 L 301 371.375 L 78 371.375 Z M 78 3.875"/></clipPath></defs><g clip-path="url(#a)"><path fill="#0D4067" d="M 145.277344 15.464844 C 137.835938 8.003906 127.933594 3.875 117.394531 3.875 C 106.855469 3.875 96.980469 8.003906 89.535156 15.464844 C 74.164062 30.871094 74.164062 55.941406 89.511719 71.371094 L 200.664062 182.984375 C 203.21875 185.550781 203.21875 189.703125 200.664062 192.265625 L 89.511719 303.878906 C 74.164062 319.285156 74.164062 344.382812 89.535156 359.789062 C 96.980469 367.273438 106.855469 371.375 117.394531 371.375 C 127.933594 371.375 137.835938 367.273438 145.277344 359.789062 L 289.046875 215.59375 C 296.515625 208.109375 300.632812 198.1875 300.632812 187.625 C 300.632812 177.066406 296.515625 167.144531 289.046875 159.683594 L 145.277344 15.464844"/></g></svg>